<svg width="776" height="220" xmlns="http://www.w3.org/2000/svg">
  <style>
    text {
      font-family: -apple-system, BlinkMacSystemFont, "Segoe UI", Helvetica, Arial, sans-serif;
    }
  </style>
  
  <!-- LEFT CARD: Stats -->
  <rect x="0" y="0" width="380" height="220" rx="10"
        fill="#161b22" stroke="#30363d" stroke-width="1"/>
  <text x="16" y="30" font-size="15" font-weight="bold" fill="#4493f8">haooxin's GitHub Statistics</text>
  <line x1="16" y1="40" x2="364" y2="40" stroke="#30363d" stroke-width="1"/>
  <svg x="16" y="45" width="16" height="16" viewBox="0 0 16 16" style="color:#8b949e"><path d="M8 .25a.75.75 0 0 1 .673.418l1.882 3.815 4.21.612a.75.75 0 0 1 .416 1.279l-3.046 2.97.719 4.192a.75.75 0 0 1-1.088.791L8 12.347l-3.766 1.98a.75.75 0 0 1-1.088-.79l.72-4.194L.818 6.374a.75.75 0 0 1 .416-1.28l4.21-.611L7.327.668A.75.75 0 0 1 8 .25z" fill="currentColor"/></svg><text x="40" y="58" font-size="13" fill="#8b949e">Stars</text><text x="364" y="58" font-size="13" fill="#e6edf3" font-weight="600" text-anchor="end">0</text><svg x="16" y="75" width="16" height="16" viewBox="0 0 16 16" style="color:#8b949e"><path d="M5 3.25a.75.75 0 1 1-1.5 0 .75.75 0 0 1 1.5 0zm0 2.122a2.25 2.25 0 1 0-1.5 0v.878A2.25 2.25 0 0 0 5.75 8.5h1.5v2.128a2.251 2.251 0 1 0 1.5 0V8.5h1.5a2.25 2.25 0 0 0 2.25-2.25v-.878a2.25 2.25 0 1 0-1.5 0v.878a.75.75 0 0 1-.75.75h-4.5A.75.75 0 0 1 5 6.25v-.878zm3.75 7.378a.75.75 0 1 1-1.5 0 .75.75 0 0 1 1.5 0zm3-8.75a.75.75 0 1 1-1.5 0 .75.75 0 0 1 1.5 0z" fill="currentColor"/></svg><text x="40" y="88" font-size="13" fill="#8b949e">Forks</text><text x="364" y="88" font-size="13" fill="#e6edf3" font-weight="600" text-anchor="end">0</text><svg x="16" y="105" width="16" height="16" viewBox="0 0 16 16" style="color:#8b949e"><path d="M2 2.5A2.5 2.5 0 0 1 4.5 0h8.75a.75.75 0 0 1 .75.75v12.5a.75.75 0 0 1-.75.75h-2.5a.75.75 0 0 1 0-1.5h1.75v-2h-8a1 1 0 0 0-.714 1.7.75.75 0 1 1-1.072 1.05A2.495 2.495 0 0 1 2 11.5Zm10.5-1h-8a1 1 0 0 0-1 1v6.708A2.486 2.486 0 0 1 4.5 9h8V1.5Z" fill="currentColor"/></svg><text x="40" y="118" font-size="13" fill="#8b949e">All-time contributions</text><text x="364" y="118" font-size="13" fill="#e6edf3" font-weight="600" text-anchor="end">175</text><svg x="16" y="135" width="16" height="16" viewBox="0 0 16 16" style="color:#8b949e"><path d="M8 2c1.981 0 3.671.992 4.933 2.078 1.27 1.091 2.187 2.345 2.637 3.023a1.62 1.62 0 0 1 0 1.798c-.45.678-1.367 1.932-2.637 3.023C11.67 13.008 9.981 14 8 14c-1.981 0-3.671-.992-4.933-2.078C1.797 10.83.88 9.576.43 8.898a1.62 1.62 0 0 1 0-1.798c.45-.677 1.367-1.931 2.637-3.022C4.33 2.992 6.019 2 8 2ZM1.679 7.932a.12.12 0 0 0 0 .136c.411.622 1.241 1.75 2.366 2.717C5.176 11.758 6.527 12.5 8 12.5c1.473 0 2.825-.742 3.955-1.715 1.124-.967 1.954-2.096 2.366-2.717a.12.12 0 0 0 0-.136c-.412-.621-1.242-1.75-2.366-2.717C10.825 4.242 9.473 3.5 8 3.5c-1.473 0-2.824.742-3.955 1.715-1.124.967-1.954 2.096-2.366 2.717ZM8 10a2 2 0 1 1-.001-3.999A2 2 0 0 1 8 10Z" fill="currentColor"/></svg><text x="40" y="148" font-size="13" fill="#8b949e">Repository views (past 2 weeks)</text><text x="364" y="148" font-size="13" fill="#e6edf3" font-weight="600" text-anchor="end">0</text><svg x="16" y="165" width="16" height="16" viewBox="0 0 16 16" style="color:#8b949e"><path d="M2 2.5A2.5 2.5 0 0 1 4.5 0h8.75a.75.75 0 0 1 .75.75v12.5a.75.75 0 0 1-.75.75h-2.5a.75.75 0 0 1 0-1.5h1.75v-2h-8a1 1 0 0 0-.714 1.7.75.75 0 1 1-1.072 1.05A2.495 2.495 0 0 1 2 11.5Zm10.5-1h-8a1 1 0 0 0-1 1v6.708A2.486 2.486 0 0 1 4.5 9h8V1.5Z" fill="currentColor"/></svg><text x="40" y="178" font-size="13" fill="#8b949e">Repositories with contributions</text><text x="364" y="178" font-size="13" fill="#e6edf3" font-weight="600" text-anchor="end">8</text>

  
  <!-- RIGHT CARD: Languages -->
  <rect x="396" y="0" width="380" height="220" rx="10"
        fill="#161b22" stroke="#30363d" stroke-width="1"/>
  <g transform="translate(396, 0)">
    <text x="16" y="30" font-size="15" font-weight="bold" fill="#e6edf3">Languages Used (By File Size)</text>
    <line x1="16" y1="40" x2="364" y2="40" stroke="#30363d" stroke-width="1"/>
    <clipPath id="bar-clip"><rect x="16" y="60" width="348" height="10" rx="5"/></clipPath>
    <g clip-path="url(#bar-clip)"><rect x="16.0" y="60" width="171.8" height="10" fill="#89e051"/><rect x="187.8" y="60" width="166.2" height="10" fill="#3572A5"/><rect x="354.0" y="60" width="9.5" height="10" fill="#701516"/><rect x="363.5" y="60" width="0.5" height="10" fill="#e34c26"/></g>
    <circle cx="21" cy="88" r="5" fill="#89e051"/><text x="30" y="92" font-size="11.5" fill="#e6edf3">Shell <tspan fill="#8b949e">49.37%</tspan></text><circle cx="137" cy="88" r="5" fill="#3572A5"/><text x="146" y="92" font-size="11.5" fill="#e6edf3">Python <tspan fill="#8b949e">47.76%</tspan></text><circle cx="253" cy="88" r="5" fill="#701516"/><text x="262" y="92" font-size="11.5" fill="#e6edf3">Ruby <tspan fill="#8b949e">2.72%</tspan></text><circle cx="21" cy="110" r="5" fill="#e34c26"/><text x="30" y="114" font-size="11.5" fill="#e6edf3">HTML <tspan fill="#8b949e">0.15%</tspan></text>
  </g>

</svg>